#Comment line ignore any data following # character 
#Hierarchical Translation and Rotation (.htr) file 
[Header]	
#Header keywords are followed by a single value 
FileType HTR		#Single word string
DataType HTRS		#Translation followed by rotation and scale data
FileVersion 1		#integer
NumSegments 84		#integer
NumFrames 2		#integer
DataFrameRate 30		#integer, data frame rate in this file
EulerRotationOrder ZYX
CalibrationUnits mm
RotationUnits Degrees
GlobalAxisofGravity Y
BoneLengthAxis Y
ScaleFactor 1.00
[SegmentNames&Hierarchy]
#CHILD	PARENT
MASTER GLOBAL
root MASTER
chest root
L_mid_tent01 root
R_mid_tent01 root
spine01 root
Bip01_Neck chest
L_humerus chest
R_humerus chest
weapon_bone chest
Bip01_Head Bip01_Neck
eye_left_bone Bip01_Head
eye_right_bone Bip01_Head
L_forearm L_humerus
L_front_hand L_forearm
L_weapon_bone L_forearm
L_front_hand01_01 L_front_hand
L_front_hand02_01 L_front_hand
L_front_hand03_01 L_front_hand
L_front_hand01_02 L_front_hand01_01
L_front_hand02_02 L_front_hand02_01
L_front_hand03_02 L_front_hand03_01
R_forearm R_humerus
R_front_hand R_forearm
R_weapon_bone R_forearm
R_front_hand01_01 R_front_hand
R_front_hand02_01 R_front_hand
R_front_hand03_01 R_front_hand
R_front_hand01_02 R_front_hand01_01
R_front_hand02_02 R_front_hand02_01
R_front_hand03_02 R_front_hand03_01
null_rope01_connect L_mid_tent01
Rope1_Seg01 null_rope01_connect
Rope1_Seg02 Rope1_Seg01
Rope1_Seg03 Rope1_Seg02
Rope1_Seg04 Rope1_Seg03
Rope1_Seg05 Rope1_Seg04
Rope1_Seg06 Rope1_Seg05
Rope1_Seg07 Rope1_Seg06
Rope1_Seg09 Rope1_Seg07
L_mid_hand01 Rope1_Seg09
L_mid_hand02 Rope1_Seg09
L_mid_hand03 Rope1_Seg09
null_rope02_connect R_mid_tent01
Rope2_Seg01 null_rope02_connect
Rope2_Seg02 Rope2_Seg01
Rope2_Seg03 Rope2_Seg02
Rope2_Seg04 Rope2_Seg03
Rope2_Seg05 Rope2_Seg04
Rope2_Seg06 Rope2_Seg05
Rope2_Seg07 Rope2_Seg06
Rope2_Seg09 Rope2_Seg07
R_mid_hand01 Rope2_Seg09
R_mid_hand02 Rope2_Seg09
R_mid_hand03 Rope2_Seg09
spine02 spine01
spine03 spine02
pelvis spine03
null_rope03_connect pelvis
null_rope04_connect pelvis
Rope3_Seg01 null_rope03_connect
Rope3_Seg02 Rope3_Seg01
Rope3_Seg03 Rope3_Seg02
Rope3_Seg04 Rope3_Seg03
Rope3_Seg05 Rope3_Seg04
Rope3_Seg06 Rope3_Seg05
Rope3_Seg07 Rope3_Seg06
Rope3_Seg08 Rope3_Seg07
Rope3_Seg09 Rope3_Seg08
R_rear_hand01 Rope3_Seg09
R_rear_hand02 Rope3_Seg09
R_rear_hand03 Rope3_Seg09
Rope4_Seg01 null_rope04_connect
Rope4_Seg02 Rope4_Seg01
Rope4_Seg03 Rope4_Seg02
Rope4_Seg04 Rope4_Seg03
Rope4_Seg05 Rope4_Seg04
Rope4_Seg06 Rope4_Seg05
Rope4_Seg07 Rope4_Seg06
Rope4_Seg08 Rope4_Seg07
Rope4_Seg09 Rope4_Seg08
L_rear_hand01 Rope4_Seg09
L_rear_hand02 Rope4_Seg09
L_rear_hand03 Rope4_Seg09
[BasePosition]
#SegmentName Tx, Ty, Tz, Rx, Ry, Rz, BoneLength
MASTER 0.000000 0.000000 0.000000 -90.000000 0.000000 0.000000 10.000000 
root 0.000000 0.000000 0.000000 0.000000 0.000000 0.000000 10.000000 
chest 0.000000 0.000000 0.000000 0.000000 0.000000 0.000000 10.000000 
L_mid_tent01 0.000000 0.000000 0.000000 0.000000 0.000000 0.000000 10.000000 
R_mid_tent01 0.000000 0.000000 0.000000 0.000000 0.000000 0.000000 10.000000 
spine01 0.000000 0.000000 0.000000 0.000000 0.000000 0.000000 10.000000 
Bip01_Neck 0.000000 0.000000 0.000000 0.000000 0.000000 0.000000 10.000000 
L_humerus 0.000000 0.000000 0.000000 0.000000 0.000000 0.000000 10.000000 
R_humerus 0.000000 0.000000 0.000000 0.000000 0.000000 0.000000 10.000000 
weapon_bone 0.000000 0.000000 0.000000 0.000000 0.000000 0.000000 10.000000 
Bip01_Head 0.000000 0.000000 0.000000 0.000000 0.000000 0.000000 10.000000 
eye_left_bone 0.000000 0.000000 0.000000 0.000000 0.000000 0.000000 10.000000 
eye_right_bone 0.000000 0.000000 0.000000 0.000000 0.000000 0.000000 10.000000 
L_forearm 0.000000 0.000000 0.000000 0.000000 0.000000 0.000000 10.000000 
L_front_hand 0.000000 0.000000 0.000000 0.000000 0.000000 0.000000 10.000000 
L_weapon_bone 0.000000 0.000000 0.000000 0.000000 0.000000 0.000000 10.000000 
L_front_hand01_01 0.000000 0.000000 0.000000 0.000000 0.000000 0.000000 10.000000 
L_front_hand02_01 0.000000 0.000000 0.000000 0.000000 0.000000 0.000000 10.000000 
L_front_hand03_01 0.000000 0.000000 0.000000 0.000000 0.000000 0.000000 10.000000 
L_front_hand01_02 0.000000 0.000000 0.000000 0.000000 0.000000 0.000000 10.000000 
L_front_hand02_02 0.000000 0.000000 0.000000 0.000000 0.000000 0.000000 10.000000 
L_front_hand03_02 0.000000 0.000000 0.000000 0.000000 0.000000 0.000000 10.000000 
R_forearm 0.000000 0.000000 0.000000 0.000000 0.000000 0.000000 10.000000 
R_front_hand 0.000000 0.000000 0.000000 0.000000 0.000000 0.000000 10.000000 
R_weapon_bone 0.000000 0.000000 0.000000 0.000000 0.000000 0.000000 10.000000 
R_front_hand01_01 0.000000 0.000000 0.000000 0.000000 0.000000 0.000000 10.000000 
R_front_hand02_01 0.000000 0.000000 0.000000 0.000000 0.000000 0.000000 10.000000 
R_front_hand03_01 0.000000 0.000000 0.000000 0.000000 0.000000 0.000000 10.000000 
R_front_hand01_02 0.000000 0.000000 0.000000 0.000000 0.000000 0.000000 10.000000 
R_front_hand02_02 0.000000 0.000000 0.000000 0.000000 0.000000 0.000000 10.000000 
R_front_hand03_02 0.000000 0.000000 0.000000 0.000000 0.000000 0.000000 10.000000 
null_rope01_connect 0.000000 0.000000 0.000000 0.000000 0.000000 0.000000 10.000000 
Rope1_Seg01 0.000000 0.000000 0.000000 0.000000 0.000000 0.000000 10.000000 
Rope1_Seg02 0.000000 0.000000 0.000000 0.000000 0.000000 0.000000 10.000000 
Rope1_Seg03 0.000000 0.000000 0.000000 0.000000 0.000000 0.000000 10.000000 
Rope1_Seg04 0.000000 0.000000 0.000000 0.000000 0.000000 0.000000 10.000000 
Rope1_Seg05 0.000000 0.000000 0.000000 0.000000 0.000000 0.000000 10.000000 
Rope1_Seg06 0.000000 0.000000 0.000000 0.000000 0.000000 0.000000 10.000000 
Rope1_Seg07 0.000000 0.000000 0.000000 0.000000 0.000000 0.000000 10.000000 
Rope1_Seg09 0.000000 0.000000 0.000000 0.000000 0.000000 0.000000 10.000000 
L_mid_hand01 0.000000 0.000000 0.000000 0.000000 0.000000 0.000000 10.000000 
L_mid_hand02 0.000000 0.000000 0.000000 0.000000 0.000000 0.000000 10.000000 
L_mid_hand03 0.000000 0.000000 0.000000 0.000000 0.000000 0.000000 10.000000 
null_rope02_connect 0.000000 0.000000 0.000000 0.000000 0.000000 0.000000 10.000000 
Rope2_Seg01 0.000000 0.000000 0.000000 0.000000 0.000000 0.000000 10.000000 
Rope2_Seg02 0.000000 0.000000 0.000000 0.000000 0.000000 0.000000 10.000000 
Rope2_Seg03 0.000000 0.000000 0.000000 0.000000 0.000000 0.000000 10.000000 
Rope2_Seg04 0.000000 0.000000 0.000000 0.000000 0.000000 0.000000 10.000000 
Rope2_Seg05 0.000000 0.000000 0.000000 0.000000 0.000000 0.000000 10.000000 
Rope2_Seg06 0.000000 0.000000 0.000000 0.000000 0.000000 0.000000 10.000000 
Rope2_Seg07 0.000000 0.000000 0.000000 0.000000 0.000000 0.000000 10.000000 
Rope2_Seg09 0.000000 0.000000 0.000000 0.000000 0.000000 0.000000 10.000000 
R_mid_hand01 0.000000 0.000000 0.000000 0.000000 0.000000 0.000000 10.000000 
R_mid_hand02 0.000000 0.000000 0.000000 0.000000 0.000000 0.000000 10.000000 
R_mid_hand03 0.000000 0.000000 0.000000 0.000000 0.000000 0.000000 10.000000 
spine02 0.000000 0.000000 0.000000 0.000000 0.000000 0.000000 10.000000 
spine03 0.000000 0.000000 0.000000 0.000000 0.000000 0.000000 10.000000 
pelvis 0.000000 0.000000 0.000000 0.000000 0.000000 0.000000 10.000000 
null_rope03_connect 0.000000 0.000000 0.000000 0.000000 0.000000 0.000000 10.000000 
null_rope04_connect 0.000000 0.000000 0.000000 0.000000 0.000000 0.000000 10.000000 
Rope3_Seg01 0.000000 0.000000 0.000000 0.000000 0.000000 0.000000 10.000000 
Rope3_Seg02 0.000000 0.000000 0.000000 0.000000 0.000000 0.000000 10.000000 
Rope3_Seg03 0.000000 0.000000 0.000000 0.000000 0.000000 0.000000 10.000000 
Rope3_Seg04 0.000000 0.000000 0.000000 0.000000 0.000000 0.000000 10.000000 
Rope3_Seg05 0.000000 0.000000 0.000000 0.000000 0.000000 0.000000 10.000000 
Rope3_Seg06 0.000000 0.000000 0.000000 0.000000 0.000000 0.000000 10.000000 
Rope3_Seg07 0.000000 0.000000 0.000000 0.000000 0.000000 0.000000 10.000000 
Rope3_Seg08 0.000000 0.000000 0.000000 0.000000 0.000000 0.000000 10.000000 
Rope3_Seg09 0.000000 0.000000 0.000000 0.000000 0.000000 0.000000 10.000000 
R_rear_hand01 0.000000 0.000000 0.000000 0.000000 0.000000 0.000000 10.000000 
R_rear_hand02 0.000000 0.000000 0.000000 0.000000 0.000000 0.000000 10.000000 
R_rear_hand03 0.000000 0.000000 0.000000 0.000000 0.000000 0.000000 10.000000 
Rope4_Seg01 0.000000 0.000000 0.000000 0.000000 0.000000 0.000000 10.000000 
Rope4_Seg02 0.000000 0.000000 0.000000 0.000000 0.000000 0.000000 10.000000 
Rope4_Seg03 0.000000 0.000000 0.000000 0.000000 0.000000 0.000000 10.000000 
Rope4_Seg04 0.000000 0.000000 0.000000 0.000000 0.000000 0.000000 10.000000 
Rope4_Seg05 0.000000 0.000000 0.000000 0.000000 0.000000 0.000000 10.000000 
Rope4_Seg06 0.000000 0.000000 0.000000 0.000000 0.000000 0.000000 10.000000 
Rope4_Seg07 0.000000 0.000000 0.000000 0.000000 0.000000 0.000000 10.000000 
Rope4_Seg08 0.000000 0.000000 0.000000 0.000000 0.000000 0.000000 10.000000 
Rope4_Seg09 0.000000 0.000000 0.000000 0.000000 0.000000 0.000000 10.000000 
L_rear_hand01 0.000000 0.000000 0.000000 0.000000 0.000000 0.000000 10.000000 
L_rear_hand02 0.000000 0.000000 0.000000 0.000000 0.000000 0.000000 10.000000 
L_rear_hand03 0.000000 0.000000 0.000000 0.000000 0.000000 0.000000 10.000000 
#Beginning of Data. Separated by tabs
#Fr	Tx	Ty	Tz	Rx	Ry	Rz	SF
[MASTER]
16 -0.000280 1875.000488 0.000000 0.001660 0.001660 0.001660 1875.000488
17 -0.000299 2000.000000 0.000000 0.001660 0.001660 0.001660 2000.000000
[root]
16 -21.700010 -73.879539 1461.640625 -91.728889 -11.584497 -89.471619 1463.667358
17 -24.639219 -71.067963 1463.436279 -91.728897 -11.584496 -89.471619 1465.367920
[chest]
16 -84.512650 -34.090519 0.000000 -2.188848 -0.134088 166.482666 91.129311
17 -84.512650 -34.090519 0.000000 -2.189164 -0.131205 166.505035 91.129311
[L_mid_tent01]
16 27.299110 22.179258 -249.918686 -20.360470 7.300725 14.777227 252.381683
17 27.299114 22.179258 -249.918686 -20.349588 7.161501 14.826968 252.381683
[R_mid_tent01]
16 23.228794 24.509907 226.238495 -165.735428 -9.321677 26.354490 228.744751
17 23.228794 24.509907 226.238495 -165.749695 -9.071853 26.423004 228.744751
[spine01]
16 -0.361383 -0.195265 0.000000 0.001956 0.001298 22.865328 0.410763
17 -0.361383 -0.195265 0.000000 0.001956 0.001298 22.851870 0.410763
[Bip01_Neck]
16 165.484543 71.581718 0.000119 176.643677 -1.657967 43.431911 180.302734
17 165.484543 71.581718 0.000119 176.643677 -1.657967 43.431911 180.302734
[L_humerus]
16 -13.983130 -135.272980 -120.471481 179.069305 17.990812 -89.638756 181.680161
17 -13.983130 -135.272980 -120.471481 178.775177 13.199743 -89.814697 181.680161
[R_humerus]
16 -13.983309 -135.273102 125.287651 -178.649765 -20.950224 -84.461784 184.909012
17 -13.983309 -135.273102 125.287651 -178.047638 -16.429352 -85.004593 184.909012
[weapon_bone]
16 235.964890 -300.705902 0.000000 0.000000 -89.951546 -128.212341 382.234833
17 235.964890 -300.705902 0.000000 0.000000 -89.951546 -128.212341 382.234833
[Bip01_Head]
16 213.621674 185.221085 18.156746 4.974087 5.778924 -43.867535 283.320923
17 213.648376 185.146011 19.126740 4.971729 4.778008 -43.880909 283.355774
[eye_left_bone]
16 -24.626970 125.451866 -64.772606 0.000000 -90.000000 -99.840431 143.318359
17 -24.626970 125.451866 -64.772606 0.000000 -90.000000 -99.840431 143.318359
[eye_right_bone]
16 -24.626970 125.451866 64.327362 0.000000 -89.965736 80.156380 143.117676
17 -24.626970 125.451866 64.327362 0.000000 -89.965736 80.156380 143.117676
[L_forearm]
16 322.776093 0.000000 -0.000119 0.000432 -0.002307 -111.191727 322.776093
17 322.776093 0.000000 -0.000119 0.000431 -0.002307 -111.155769 322.776093
[L_front_hand]
16 241.149185 -0.042021 -3.300071 -178.667953 -1.835447 -27.422350 241.171753
17 241.149185 -0.042021 -3.300071 -178.667953 -1.835447 -27.422344 241.171753
[L_weapon_bone]
16 156.183838 0.000000 0.000000 0.000014 0.000007 0.000001 156.183838
17 156.183838 0.000000 0.000000 0.000014 0.000007 0.000001 156.183838
[L_front_hand01_01]
16 86.095154 20.947098 -0.655860 -0.280373 -0.529283 65.613800 88.609184
17 86.095154 20.947098 -0.655860 -0.282467 -0.528169 66.067474 88.609184
[L_front_hand02_01]
16 86.935165 -11.437475 24.513514 141.458649 -54.658344 -46.027485 91.046425
17 86.935165 -11.437475 24.513514 141.960785 -54.937954 -46.642345 91.046425
[L_front_hand03_01]
16 86.637497 -14.123976 -20.424902 -141.832764 52.885189 -48.080185 90.126129
17 86.637497 -14.123976 -20.424902 -142.303543 53.163303 -48.671032 90.126129
[L_front_hand01_02]
16 71.020905 -0.000179 0.000030 0.000315 -0.002326 -105.400543 71.020905
17 71.020905 -0.000179 0.000030 0.000315 -0.002326 -105.421257 71.020905
[L_front_hand02_02]
16 71.020927 -0.000119 0.000060 0.000315 -0.002326 -105.400543 71.020927
17 71.020927 -0.000119 0.000060 0.000315 -0.002326 -105.421257 71.020927
[L_front_hand03_02]
16 71.020905 -0.000060 0.000060 0.000315 -0.002326 -105.400543 71.020905
17 71.020905 -0.000060 0.000060 0.000315 -0.002326 -105.421257 71.020905
[R_forearm]
16 322.776428 -0.000060 0.000030 0.201066 0.068290 -109.843300 322.776428
17 322.776428 -0.000060 0.000030 0.201080 0.068247 -109.819130 322.776428
[R_front_hand]
16 238.847015 -0.006795 2.210259 -2.635298 -10.645461 -26.312506 238.857239
17 238.847015 -0.006795 2.210259 -2.635298 -10.645460 -26.312500 238.857239
[R_weapon_bone]
16 155.664093 0.002503 -0.000030 0.003487 0.001180 -90.988930 155.664078
17 155.664093 0.002503 -0.000030 0.003487 0.001180 -90.988930 155.664078
[R_front_hand01_01]
16 87.624611 14.231146 22.918642 -138.672287 -52.939835 42.677601 91.683487
17 87.624611 14.231146 22.918642 -139.271561 -53.333107 43.426708 91.683487
[R_front_hand02_01]
16 89.356956 14.367283 -19.491137 139.502045 51.377892 45.363930 92.579636
17 89.356956 14.367283 -19.491137 140.080994 51.767307 46.104946 92.579636
[R_front_hand03_01]
16 87.286232 -22.307278 -0.143439 0.064897 -0.451663 -63.182877 90.091743
17 87.286232 -22.307278 -0.143439 0.071479 -0.448702 -63.787704 90.091743
[R_front_hand01_02]
16 71.020905 0.000060 0.000119 0.002323 -0.000334 106.381714 71.020905
17 71.020905 0.000060 0.000119 0.002323 -0.000334 106.381706 71.020905
[R_front_hand02_02]
16 71.020844 -0.000030 -0.000119 0.002323 -0.000334 106.381714 71.020836
17 71.020844 -0.000030 -0.000119 0.002323 -0.000334 106.381706 71.020836
[R_front_hand03_02]
16 71.020905 0.000000 0.000030 0.002323 -0.000334 106.381714 71.020905
17 71.020905 0.000000 0.000030 0.002323 -0.000334 106.381706 71.020905
[null_rope01_connect]
16 328.732483 0.000000 -0.000238 -165.766663 -66.834816 -108.612778 328.732483
17 328.732483 0.000000 -0.000238 -166.123077 -66.882423 -108.284836 328.732483
[Rope1_Seg01]
16 -0.000014 -0.000138 0.000095 103.818863 -3.912897 -84.557091 0.000169
17 -0.000015 -0.000145 0.000092 103.071724 -3.948219 -85.805557 0.000172
[Rope1_Seg02]
16 139.999863 -0.000179 0.000000 -1.554184 0.972980 -3.172637 139.999863
17 139.999863 -0.000179 0.000000 -1.333209 1.471620 -3.374571 139.999863
[Rope1_Seg03]
16 139.999924 0.000060 -0.000060 -1.884998 0.675151 -3.581359 139.999924
17 139.999924 0.000060 -0.000060 -1.845793 1.057127 -3.913996 139.999924
[Rope1_Seg04]
16 139.999924 -0.000060 -0.000119 -0.696185 1.454323 -2.747619 139.999924
17 139.999924 -0.000060 -0.000119 -0.347656 2.100629 -2.859160 139.999924
[Rope1_Seg05]
16 139.999832 0.000119 -0.000060 1.285450 1.468931 0.596874 139.999832
17 139.999832 0.000119 -0.000060 1.712994 1.952658 0.857001 139.999832
[Rope1_Seg06]
16 139.999954 0.000119 -0.000060 0.422512 0.599770 0.087953 139.999954
17 139.999954 0.000119 -0.000060 0.561525 0.787337 0.144005 139.999954
[Rope1_Seg07]
16 139.999985 0.000060 0.000000 0.199379 0.342976 -0.037311 139.999985
17 139.999985 0.000060 0.000000 0.273646 0.456679 -0.007140 139.999985
[Rope1_Seg09]
16 121.602913 0.000119 -0.000089 -89.793175 -1.359789 0.847147 121.602913
17 121.602913 0.000119 -0.000089 -89.793175 -1.359789 0.847147 121.602913
[L_mid_hand01]
16 103.859421 1.038730 8.195221 122.214622 -62.281231 -29.682964 104.187431
17 103.859421 1.038730 8.195221 126.075401 -65.098549 -33.991913 104.187431
[L_mid_hand02]
16 105.572853 -4.139662 -10.864139 -163.055801 41.815437 -64.846191 106.211075
17 105.572853 -4.139662 -10.864139 -166.035263 42.723965 -69.273842 106.211075
[L_mid_hand03]
16 104.641464 17.579376 -3.913581 -8.059158 17.002197 68.062881 106.179977
17 104.641464 17.579376 -3.913581 -7.014418 17.452778 71.596474 106.179977
[null_rope02_connect]
16 328.732849 0.000179 -0.000119 -159.786194 74.555588 -53.743305 328.732849
17 328.732849 0.000179 -0.000119 -160.576370 74.709221 -54.509033 328.732849
[Rope2_Seg01]
16 0.000091 -0.000043 0.000000 -44.070278 -3.370485 -92.018539 0.000100
17 0.000092 -0.000053 0.000000 -44.339794 -3.960870 -91.223419 0.000106
[Rope2_Seg02]
16 139.999741 -0.000060 -0.000119 2.319631 8.409530 -0.041060 139.999756
17 139.999741 -0.000060 -0.000119 2.001135 8.942590 -0.759729 139.999756
[Rope2_Seg03]
16 140.000107 0.000030 0.000000 2.609327 9.903170 1.101701 140.000107
17 140.000107 0.000030 0.000000 2.222860 9.959797 0.364201 140.000107
[Rope2_Seg04]
16 139.999802 0.000000 -0.000060 -1.258644 -2.328579 -2.258429 139.999802
17 139.999802 0.000000 -0.000060 -1.110009 -1.593177 -2.238608 139.999802
[Rope2_Seg05]
16 139.999985 -0.000060 0.000119 -2.543278 -6.679196 -2.758985 139.999985
17 139.999985 -0.000060 0.000119 -2.138574 -5.908533 -2.394444 139.999985
[Rope2_Seg06]
16 139.999893 -0.000030 -0.000119 -1.134305 -2.107267 -1.174614 139.999893
17 139.999893 -0.000030 -0.000119 -0.941615 -1.807303 -1.037102 139.999893
[Rope2_Seg07]
16 139.999893 0.000060 -0.000060 -0.751959 -1.239739 -0.746959 139.999893
17 139.999893 0.000060 -0.000060 -0.620431 -1.050452 -0.660359 139.999893
[Rope2_Seg09]
16 121.338966 0.000089 -0.000060 33.793236 -1.359788 -0.847141 121.338966
17 121.338966 0.000089 -0.000060 33.793236 -1.359788 -0.847141 121.338966
[R_mid_hand01]
16 104.680779 11.144459 -10.335981 -32.057350 37.073116 46.635818 105.778534
17 104.680779 11.144459 -10.335981 -28.450209 39.729855 52.441807 105.778534
[R_mid_hand02]
16 104.070427 2.443552 8.231699 66.850014 -50.884758 18.890066 104.424065
17 104.070427 2.443552 8.231699 63.903580 -55.672924 22.558943 104.424065
[R_mid_hand03]
16 106.028137 -11.221827 -5.996406 -171.959641 13.662919 -56.404911 106.788818
17 106.028137 -11.221827 -5.996406 -173.263687 14.341302 -61.789295 106.788818
[spine02]
16 129.756927 0.001550 0.000119 0.538614 -4.023777 -15.474610 129.756927
17 129.756927 0.001550 0.000119 0.534315 -4.024356 -15.422028 129.756927
[spine03]
16 78.613976 0.081635 -4.899010 2.000257 3.776486 18.067295 78.766510
17 78.613976 0.081635 -4.899011 1.999574 3.779497 18.034771 78.766510
[pelvis]
16 169.435242 0.051022 0.000000 -0.070410 -0.177705 17.318193 169.435257
17 169.435242 0.051022 0.000000 -0.070309 -0.177745 17.253162 169.435257
[null_rope03_connect]
16 -1.257226 -2.466202 137.391083 0.000000 -89.531029 58.814396 137.418976
17 -1.257226 -2.466202 137.391083 0.000000 -89.526047 58.856552 137.418976
[null_rope04_connect]
16 -1.259640 -2.480268 -137.844437 0.000000 -89.531029 58.814396 137.872513
17 -1.259640 -2.480268 -137.844437 0.000000 -89.526047 58.856552 137.872513
[Rope3_Seg01]
16 0.000010 0.000038 -0.000114 13.574794 21.266050 -90.073875 0.000121
17 0.000010 0.000038 -0.000114 12.635614 21.895075 -92.250839 0.000121
[Rope3_Seg02]
16 139.999924 -0.000119 0.000060 0.168420 -2.709480 -4.119172 139.999924
17 139.999924 -0.000119 0.000060 0.281821 -3.078094 -3.241995 139.999924
[Rope3_Seg03]
16 139.999924 -0.000119 0.000119 0.008416 -2.493243 -5.085559 139.999924
17 139.999924 -0.000119 0.000119 0.221955 -3.004455 -4.245045 139.999924
[Rope3_Seg04]
16 139.999924 0.000119 0.000000 -1.497671 -1.921998 -10.693719 139.999924
17 139.999924 0.000119 0.000000 -0.999824 -2.946728 -10.083596 139.999924
[Rope3_Seg05]
16 139.999924 -0.000238 0.000060 2.408584 -2.845345 5.600046 139.999924
17 139.999924 -0.000238 0.000060 2.585784 -2.643894 6.551576 139.999924
[Rope3_Seg06]
16 139.999893 -0.000119 -0.000060 3.370207 -3.020441 20.615341 139.999893
17 139.999893 -0.000119 -0.000060 3.198581 -1.380133 20.794863 139.999893
[Rope3_Seg07]
16 139.999771 0.000060 -0.000119 0.601952 -1.311554 12.264698 139.999771
17 139.999771 0.000060 -0.000119 0.542056 -0.455915 11.572516 139.999771
[Rope3_Seg08]
16 139.999985 -0.000060 0.000000 0.078113 -0.745840 6.513318 139.999985
17 139.999985 -0.000060 0.000000 0.094407 -0.300608 6.176641 139.999985
[Rope3_Seg09]
16 90.185997 -0.000179 -0.000060 89.793228 -1.359877 -0.847183 90.185997
17 90.185997 -0.000179 -0.000060 89.793228 -1.359877 -0.847183 90.185997
[R_rear_hand01]
16 103.366196 -6.073594 -10.757982 -169.706436 22.536156 -54.046982 104.101845
17 103.366196 -6.073594 -10.757982 -171.885513 23.373785 -59.632885 104.101845
[R_rear_hand02]
16 100.509819 12.039542 -7.992327 -24.637733 30.906170 51.254921 101.543350
17 100.509819 12.039542 -7.992327 -21.647255 32.954239 56.905464 101.543350
[R_rear_hand03]
16 101.539970 5.215704 5.435467 80.293877 -53.997543 11.741186 101.819031
17 101.539970 5.215704 5.435467 78.870155 -59.127991 13.449200 101.819031
[Rope4_Seg01]
16 0.000010 0.000038 -0.000114 -92.278816 33.173695 -85.786354 0.000121
17 0.000010 0.000038 -0.000114 -92.258980 33.443790 -85.790688 0.000121
[Rope4_Seg02]
16 139.999985 0.000060 0.000119 -0.608488 0.172392 -7.031594 139.999985
17 139.999985 0.000060 0.000119 -0.629296 0.179472 -7.319084 139.999985
[Rope4_Seg03]
16 139.999924 0.000000 -0.000238 -0.953713 0.298453 -7.201805 139.999924
17 139.999924 0.000000 -0.000238 -1.005187 0.312306 -7.519282 139.999924
[Rope4_Seg04]
16 139.999985 0.000000 0.000119 -1.547172 1.664040 -7.966560 139.999985
17 139.999985 0.000000 0.000119 -1.670791 1.843388 -8.372986 139.999985
[Rope4_Seg05]
16 139.999802 -0.000060 -0.000119 -1.133115 -0.270818 -6.012690 139.999802
17 139.999802 -0.000060 -0.000119 -1.185124 -0.310191 -6.200408 139.999802
[Rope4_Seg06]
16 139.999924 0.000000 0.000060 -0.247856 -3.196654 -3.118707 139.999924
17 139.999924 0.000000 0.000060 -0.192730 -3.596055 -3.109994 139.999924
[Rope4_Seg07]
16 139.999802 0.000000 0.000000 -0.257003 -2.764874 -2.609403 139.999802
17 139.999802 0.000000 0.000000 -0.198548 -3.164371 -2.605406 139.999802
[Rope4_Seg08]
16 139.999924 0.000000 0.000119 -2.027556 -1.487307 -2.222994 139.999924
17 139.999924 0.000000 0.000119 -2.032585 -1.710789 -2.263559 139.999924
[Rope4_Seg09]
16 90.185791 0.000060 0.000060 -135.617828 2.228885 0.850567 90.185791
17 90.185791 0.000060 0.000060 -135.617828 2.228885 0.850567 90.185791
[L_rear_hand01]
16 101.696655 -8.392275 -7.654577 -16.606979 -35.526840 114.151619 102.329041
17 101.696655 -8.392275 -7.654577 -14.676040 -36.272415 110.857796 102.329041
[L_rear_hand02]
16 102.726799 -1.568258 5.773216 75.446785 66.761177 162.720428 102.900848
17 102.726799 -1.568258 5.773216 73.610291 69.437737 160.740738 102.900848
[L_rear_hand03]
16 104.552910 9.721220 -10.420293 -175.325211 -24.244322 -111.864204 105.519653
17 104.552910 9.721220 -10.420293 -176.571304 -24.441328 -108.830574 105.519653
